<?xml version="1.0" standalone="no"?>
<!DOCTYPE svg PUBLIC "-//W3C//DTD SVG 20010904//EN"
 "http://www.w3.org/TR/2001/REC-SVG-20010904/DTD/svg10.dtd">
<svg version="1.0" xmlns="http://www.w3.org/2000/svg"
 width="1584.000000pt" height="1584.000000pt" viewBox="0 0 1584.000000 1584.000000"
 preserveAspectRatio="xMidYMid meet">
<metadata>
Created by potrace 1.14, written by Peter Selinger 2001-2017
</metadata>
<g transform="translate(0.000000,1584.000000) scale(0.100000,-0.100000)"
fill="#000000" stroke="none">
<path d="M9418 12142 l-678 -2 0 -450 0 -450 2300 0 c1265 0 2300 -3 2300 -7
0 -5 -30 -46 -67 -93 -37 -47 -124 -159 -193 -250 -175 -231 -261 -342 -450
-585 -91 -116 -237 -305 -325 -419 -88 -115 -206 -266 -263 -338 -56 -71 -137
-175 -180 -231 -43 -56 -110 -142 -148 -191 -38 -49 -93 -121 -123 -160 -30
-39 -125 -161 -211 -271 -86 -110 -229 -294 -318 -410 -90 -115 -215 -277
-280 -360 -64 -82 -164 -211 -222 -286 -58 -75 -147 -190 -198 -255 -224 -288
-395 -509 -492 -633 -58 -74 -137 -175 -175 -225 -39 -50 -108 -140 -155 -200
-47 -60 -103 -132 -124 -160 -52 -67 -93 -120 -348 -448 -119 -152 -227 -291
-242 -310 -14 -18 -90 -114 -168 -213 -78 -99 -164 -209 -190 -244 l-48 -64 0
-458 0 -459 3115 0 3115 0 0 449 0 448 -37 7 c-21 3 -1128 6 -2460 6 -2023 0
-2423 2 -2423 13 0 8 23 40 51 72 27 31 85 103 127 159 113 150 361 472 482
626 58 74 176 225 261 335 85 110 209 269 274 354 66 84 170 217 230 296 61
78 148 191 194 251 47 60 135 174 197 254 62 80 211 271 331 426 120 154 261
336 313 403 52 68 164 211 248 319 84 109 194 251 244 317 51 66 133 172 183
235 50 63 167 214 261 335 177 229 308 398 522 673 70 90 192 248 272 352 391
506 490 633 569 728 47 57 97 120 111 139 l25 36 3 467 4 467 -474 6 c-430 7
-3061 6 -4740 -1z"/>
<path d="M1377 11563 c4 -312 8 -2141 8 -4063 l0 -3495 1850 1 c1018 0 1884 4
1925 8 626 61 1098 212 1492 477 473 318 853 829 1122 1507 111 277 216 652
261 922 9 58 21 125 25 150 16 85 49 355 62 500 17 193 17 795 0 980 -22 241
-54 467 -102 720 -17 89 -89 377 -121 485 -172 573 -464 1113 -815 1510 -183
206 -452 409 -721 543 -237 119 -589 224 -893 267 -349 50 -259 48 -2243 52
l-1858 4 8 -568z m2929 -793 c525 -12 672 -30 909 -111 211 -73 416 -195 570
-341 152 -143 307 -367 399 -575 140 -316 229 -698 268 -1158 17 -199 17 -871
0 -1075 -79 -946 -393 -1598 -917 -1908 -132 -78 -359 -165 -515 -198 -210
-43 -281 -47 -1151 -51 l-837 -4 -7 493 c-9 656 -2 4904 8 4915 20 19 691 26
1273 13z"/>
</g>
</svg>
